<svg xmlns="http://www.w3.org/2000/svg" width="960" height="560" viewBox="0 0 960 560" fill="none">
  <defs>
    <linearGradient id="bg" x1="62" y1="48" x2="906" y2="504" gradientUnits="userSpaceOnUse">
      <stop stop-color="#F8FBFD"/>
      <stop offset=".48" stop-color="#E6F0F4"/>
      <stop offset="1" stop-color="#D4E3EB"/>
    </linearGradient>
    <linearGradient id="dash" x1="144" y1="120" x2="804" y2="418" gradientUnits="userSpaceOnUse">
      <stop stop-color="#0F4E67"/>
      <stop offset="1" stop-color="#123F60"/>
    </linearGradient>
    <linearGradient id="chart" x1="178" y1="370" x2="566" y2="226" gradientUnits="userSpaceOnUse">
      <stop stop-color="#39C2C0"/>
      <stop offset=".5" stop-color="#67D5A3"/>
      <stop offset="1" stop-color="#F3B85E"/>
    </linearGradient>
  </defs>
  <rect width="960" height="560" rx="42" fill="url(#bg)"/>
  <rect x="124" y="90" width="712" height="378" rx="32" fill="url(#dash)"/>
  <rect x="164" y="128" width="198" height="78" rx="22" fill="#F6FBFD" fill-opacity=".94"/>
  <rect x="388" y="128" width="198" height="78" rx="22" fill="#0F8C88"/>
  <rect x="612" y="128" width="184" height="78" rx="22" fill="#F6FBFD" fill-opacity=".94"/>
  <rect x="164" y="232" width="420" height="184" rx="28" fill="#F6FBFD" fill-opacity=".97"/>
  <path d="M194 382c54-18 104-54 146-108 29 28 55 46 77 54 47-54 90-90 129-108" stroke="url(#chart)" stroke-width="26" stroke-linecap="round" stroke-linejoin="round"/>
  <rect x="610" y="232" width="186" height="88" rx="22" fill="#EDF7F8"/>
  <rect x="610" y="338" width="186" height="78" rx="22" fill="#FFF2E5"/>
  <circle cx="730" cy="369" r="24" fill="#F59F0B"/>
  <rect x="642" y="258" width="112" height="16" rx="8" fill="#8BC9C2"/>
  <rect x="642" y="286" width="84" height="14" rx="7" fill="#5D84C6"/>
  <rect x="196" y="150" width="96" height="14" rx="7" fill="#0F4E67" fill-opacity=".6"/>
  <rect x="196" y="176" width="62" height="10" rx="5" fill="#8AA4B2"/>
  <rect x="420" y="150" width="94" height="14" rx="7" fill="#DDF7F4"/>
  <rect x="420" y="176" width="66" height="10" rx="5" fill="#B4EAD8"/>
  <rect x="644" y="150" width="88" height="14" rx="7" fill="#0F4E67" fill-opacity=".6"/>
  <rect x="644" y="176" width="58" height="10" rx="5" fill="#8AA4B2"/>
  <circle cx="152" cy="438" r="44" fill="#FFFFFF" fill-opacity=".46"/>
  <circle cx="804" cy="108" r="58" fill="#FFFFFF" fill-opacity=".22"/>
</svg>
