<svg xmlns="http://www.w3.org/2000/svg" width="960" height="720" viewBox="0 0 960 720" fill="none">
  <defs>
    <linearGradient id="bg" x1="90" y1="70" x2="870" y2="650" gradientUnits="userSpaceOnUse">
      <stop stop-color="#F9D9B8"/>
      <stop offset="0.52" stop-color="#EFC29D"/>
      <stop offset="1" stop-color="#D58B67"/>
    </linearGradient>
    <linearGradient id="panel" x1="570" y1="120" x2="870" y2="610" gradientUnits="userSpaceOnUse">
      <stop stop-color="#1D8B82"/>
      <stop offset="1" stop-color="#0D5465"/>
    </linearGradient>
    <linearGradient id="screen" x1="174" y1="188" x2="420" y2="410" gradientUnits="userSpaceOnUse">
      <stop stop-color="#FFF7EF"/>
      <stop offset="1" stop-color="#EFD0B0"/>
    </linearGradient>
  </defs>
  <rect width="960" height="720" rx="44" fill="url(#bg)"/>
  <circle cx="165" cy="130" r="68" fill="#FFF4E8" fill-opacity=".6"/>
  <circle cx="790" cy="598" r="94" fill="#F2E5D6" fill-opacity=".35"/>
  <rect x="544" y="96" width="324" height="528" rx="34" fill="url(#panel)"/>
  <rect x="112" y="150" width="360" height="438" rx="30" fill="#F4E3D1"/>
  <rect x="136" y="176" width="310" height="390" rx="24" fill="url(#screen)"/>
  <rect x="160" y="208" width="264" height="164" rx="22" fill="#D79A74"/>
  <circle cx="262" cy="286" r="72" fill="#F1C58D"/>
  <rect x="222" y="376" width="140" height="110" rx="24" fill="#F8E6D1"/>
  <rect x="610" y="166" width="192" height="232" rx="28" fill="#F8FAFB" fill-opacity=".92"/>
  <path d="M704 218c41 0 76 30 84 70-8 7-18 11-29 11h-96c-12 0-23-5-31-12 8-40 43-69 72-69Z" fill="#ECB782"/>
  <path d="M674 310h62c53 0 96 43 96 96v12H578v-12c0-53 43-96 96-96Z" fill="#E06A43"/>
  <rect x="598" y="460" width="210" height="112" rx="24" fill="#083B4E" fill-opacity=".66"/>
  <rect x="622" y="488" width="162" height="18" rx="9" fill="#D5EFEA"/>
  <rect x="622" y="520" width="104" height="14" rx="7" fill="#8ECBC3"/>
  <rect x="622" y="546" width="136" height="14" rx="7" fill="#5EB6D5"/>
  <path d="M80 560c118-88 236-132 354-132 118 0 248 41 390 124v168H80V560Z" fill="#B56A55" fill-opacity=".38"/>
  <path d="M470 322c-18-78-81-136-157-136-27 0-53 8-76 21l59 31c11-7 25-11 39-11 42 0 78 37 85 88l50 7Z" fill="#FFF4EA" fill-opacity=".7"/>
  <rect x="82" y="94" width="170" height="18" rx="9" fill="#FFF7EF" fill-opacity=".54"/>
  <rect x="82" y="122" width="112" height="14" rx="7" fill="#FFF7EF" fill-opacity=".38"/>
</svg>
