<svg xmlns="http://www.w3.org/2000/svg" width="860" height="620" viewBox="0 0 860 620" fill="none">
  <defs>
    <linearGradient id="bg" x1="72" y1="76" x2="792" y2="560" gradientUnits="userSpaceOnUse">
      <stop stop-color="#E8F5F4"/>
      <stop offset=".58" stop-color="#CBE6E1"/>
      <stop offset="1" stop-color="#A8C9C9"/>
    </linearGradient>
    <linearGradient id="board" x1="506" y1="126" x2="742" y2="376" gradientUnits="userSpaceOnUse">
      <stop stop-color="#1D5276"/>
      <stop offset="1" stop-color="#0F8C88"/>
    </linearGradient>
  </defs>
  <rect width="860" height="620" rx="40" fill="url(#bg)"/>
  <rect x="78" y="114" width="328" height="314" rx="28" fill="#F8FCFB"/>
  <rect x="106" y="146" width="272" height="64" rx="18" fill="#D8ECE8"/>
  <rect x="106" y="230" width="128" height="130" rx="18" fill="#F3D5BB"/>
  <rect x="250" y="230" width="128" height="130" rx="18" fill="#FFECE2"/>
  <rect x="458" y="102" width="276" height="346" rx="30" fill="url(#board)"/>
  <rect x="492" y="140" width="206" height="42" rx="16" fill="#F5FBFA" fill-opacity=".92"/>
  <rect x="492" y="208" width="142" height="176" rx="20" fill="#FFF5E8" fill-opacity=".94"/>
  <rect x="648" y="208" width="50" height="78" rx="16" fill="#9AD8D0"/>
  <rect x="648" y="306" width="50" height="78" rx="16" fill="#78B9F3"/>
  <circle cx="560" cy="272" r="34" fill="#F1C287"/>
  <path d="M538 315h44c33 0 60 27 60 60v9h-164v-9c0-33 27-60 60-60Z" fill="#EA7B50"/>
  <rect x="132" y="468" width="596" height="74" rx="24" fill="#0F3348" fill-opacity=".18"/>
  <rect x="164" y="494" width="164" height="14" rx="7" fill="#1A7280" fill-opacity=".85"/>
  <rect x="346" y="494" width="92" height="14" rx="7" fill="#E2974E" fill-opacity=".85"/>
  <rect x="456" y="494" width="112" height="14" rx="7" fill="#1A7280" fill-opacity=".7"/>
  <rect x="586" y="494" width="96" height="14" rx="7" fill="#3D79C5" fill-opacity=".7"/>
  <circle cx="726" cy="126" r="44" fill="#FFFFFF" fill-opacity=".34"/>
  <circle cx="126" cy="88" r="58" fill="#FFFFFF" fill-opacity=".34"/>
</svg>
